<svg version="1.2" xmlns="http://www.w3.org/2000/svg" viewBox="0 0 88 106" width="88" height="106"><defs><linearGradient id="P" gradientUnits="userSpaceOnUse"/><linearGradient id="g1" x2="1" href="#P" gradientTransform="matrix(80.044,72.072,-75.394,83.733,60.258,-65.907)"><stop stop-color="#9c5b4b"/><stop offset=".21" stop-color="#be7764"/><stop offset=".4" stop-color="#924a3d"/><stop offset=".73" stop-color="#b3695a"/><stop offset=".9" stop-color="#814537"/><stop offset="1" stop-color="#945244"/></linearGradient><linearGradient id="g2" x2="1" href="#P" gradientTransform="matrix(80.044,72.072,-75.394,83.733,60.258,-65.907)"><stop stop-color="#6d6565"/><stop offset="1" stop-color="#c6b7b7"/></linearGradient><linearGradient id="g3" x2="1" href="#P" gradientTransform="matrix(11.718,-4.75,4.75,11.718,15.408,21.588)"><stop stop-color="#663025"/><stop offset="1" stop-color="#f2a088"/></linearGradient><linearGradient id="g4" x2="1" href="#P" gradientTransform="matrix(-19.198,-16.109,17.51,-20.867,20.307,106.099)"><stop offset="0" stop-color="#945244"/><stop offset=".1" stop-color="#814537"/><stop offset=".27" stop-color="#b3695a"/><stop offset=".6" stop-color="#924a3d"/><stop offset=".79" stop-color="#be7764"/><stop offset="1" stop-color="#9c5b4b"/></linearGradient><linearGradient id="g5" x2="1" href="#P" gradientTransform="matrix(0,-23.62,12.896,0,3.83,92.273)"><stop stop-color="#9fa9af"/><stop offset=".38" stop-color="#939fa3"/><stop offset="1" stop-color="#bcc9cf"/></linearGradient><linearGradient id="g6" x2="1" href="#P" gradientTransform="matrix(0,-4.561,4.561,0,23.18,74.62)"><stop stop-color="#977871"/><stop offset="1" stop-color="#cfb09f"/></linearGradient><linearGradient id="g7" x2="1" href="#P" gradientTransform="matrix(0,-12.405,68.007,0,52.865,38.386)"><stop offset="0" stop-color="#945244"/><stop offset=".08" stop-color="#814537"/><stop offset=".27" stop-color="#b3695a"/><stop offset=".6" stop-color="#924a3d"/><stop offset=".79" stop-color="#d9856f"/><stop offset="1" stop-color="#9c5b4b"/></linearGradient><linearGradient id="g8" x2="1" href="#P" gradientTransform="matrix(4.129,0,0,12.405,32.049,25.981)"><stop offset=".04" stop-color="#7e8182"/><stop offset=".29"/></linearGradient><linearGradient id="g9" x2="1" href="#P" gradientTransform="matrix(1.387,0,0,12.405,29.739,25.981)"><stop offset=".57"/><stop offset=".96" stop-color="#7e8182"/></linearGradient><linearGradient id="g10" x2="1" href="#P" gradientTransform="matrix(.923,0,0,12.405,31.126,25.981)"><stop offset=".04" stop-color="#7e8182"/><stop offset=".39" stop-color="#fff"/></linearGradient><linearGradient id="g11" x2="1" href="#P" gradientTransform="matrix(4.129,0,0,12.405,74.124,25.981)"><stop offset=".04" stop-color="#7e8182"/><stop offset=".29"/></linearGradient><linearGradient id="g12" x2="1" href="#P" gradientTransform="matrix(1.387,0,0,12.405,71.814,25.981)"><stop offset=".57"/><stop offset=".96" stop-color="#7e8182"/></linearGradient><linearGradient id="g13" x2="1" href="#P" gradientTransform="matrix(.923,0,0,12.405,73.201,25.981)"><stop offset=".04" stop-color="#7e8182"/><stop offset=".39" stop-color="#fff"/></linearGradient><linearGradient id="g14" x2="1" href="#P" gradientTransform="matrix(0,-1.192,62.893,0,53.985,38.386)"><stop offset=".04" stop-color="#9c594a"/><stop offset=".82" stop-color="#fff"/></linearGradient><linearGradient id="g15" x2="1" href="#P" gradientTransform="matrix(0,1.192,-62.893,0,53.985,25.981)"><stop offset=".04" stop-color="#ff9179"/><stop offset=".82"/></linearGradient></defs><style>.a{fill:url(#g1)}.b{mix-blend-mode:overlay;fill:url(#g2)}.c{fill:url(#g3)}.d{opacity:0;fill:#fff}.e{opacity:.05;fill:#faf9f7}.f{opacity:.09;fill:#f5f2ef}.g{opacity:.14;fill:#f0ece8}.h{opacity:.19;fill:#ece5e0}.i{opacity:.24;fill:#e7dfd8}.j{opacity:.29;fill:#e2d8d0}.k{opacity:.33;fill:#ddd2c8}.l{opacity:.38;fill:#d8ccc1}.m{opacity:.43;fill:#d3c5b9}.n{opacity:.47;fill:#cebfb1}.o{opacity:.53;fill:#cab8a9}.p{opacity:.57;fill:#c5b2a1}.q{opacity:.62;fill:#c0ab99}.r{opacity:.67;fill:#bba592}.s{opacity:.71;fill:#b69f8a}.t{opacity:.76;fill:#b19882}.u{opacity:.81;fill:#ac927a}.v{opacity:.86;fill:#a88b72}.w{opacity:.91;fill:#a3856b}.x{opacity:.95;fill:#9e7e63}.y{fill:#99785b}.z{fill:url(#g4)}.A{opacity:.5;mix-blend-mode:multiply;fill:url(#g5)}.B{opacity:.05;fill:#f6f4f4}.C{opacity:.09;fill:#ece9e8}.D{opacity:.14;fill:#e3dfdd}.E{opacity:.19;fill:#d9d4d1}.F{opacity:.24;fill:#d0c9c6}.G{opacity:.29;fill:#c6bebb}.H{opacity:.33;fill:#bdb4af}.I{opacity:.38;fill:#b3a9a4}.J{opacity:.43;fill:#aa9e99}.K{opacity:.47;fill:#a0938d}.L{opacity:.53;fill:#978982}.M{opacity:.57;fill:#8d7e76}.N{opacity:.62;fill:#84736b}.O{opacity:.67;fill:#7a6860}.P{opacity:.71;fill:#715e54}.Q{opacity:.76;fill:#675349}.R{opacity:.81;fill:#5e483e}.S{opacity:.86;fill:#543d32}.T{opacity:.91;fill:#4b3327}.U{opacity:.95;fill:#41281b}.V{fill:#381d10}.W{opacity:.5;mix-blend-mode:multiply;fill:url(#g6)}.X{fill:#b26d5c}.Y{fill:url(#g7)}.Z{fill:#6f362b}.a0{opacity:.5;mix-blend-mode:screen;fill:url(#g8)}.a1{opacity:.5;mix-blend-mode:screen;fill:url(#g9)}.a2{opacity:.5;mix-blend-mode:multiply;fill:url(#g10)}.a3{opacity:.5;mix-blend-mode:screen;fill:url(#g11)}.a4{opacity:.5;mix-blend-mode:screen;fill:url(#g12)}.a5{opacity:.5;mix-blend-mode:multiply;fill:url(#g13)}.a6{opacity:.5;mix-blend-mode:multiply;fill:url(#g14)}.a7{opacity:.5;mix-blend-mode:screen;fill:url(#g15)}</style><path class="a" d="m25.8 105.2c-14 0-25.3-11.3-25.3-25.3v-54.1c0-14 11.3-25.3 25.3-25.3 14 0 25.3 11.3 25.3 25.3v54.1c0 14-11.3 25.3-25.3 25.3z"/><path fill-rule="evenodd" class="b" d="m51.1 25.8v54.1c0 14-11.3 25.3-25.3 25.3-14 0-25.3-11.3-25.3-25.3v-54.1c0-14 11.3-25.3 25.3-25.3 14 0 25.3 11.3 25.3 25.3zm-0.9 0c0-13.4-11-24.4-24.4-24.4-13.5 0-24.4 11-24.4 24.4v54.1c0 13.4 10.9 24.4 24.4 24.4 13.4 0 24.4-11 24.4-24.4z"/><path class="c" d="m25.8 32.2c-2.2 0.7-4.2 2.9-5.2 3.3 1.4 1.8 3.2 2.9 4.6 3.1 0.1-1.5 0.3-3.4 0.6-6.4zm-0.6 6.4c-1.4-0.2-3.2-1.3-4.6-3.1-1.7 0.5-3.3 2.1-4.6 2.5 1.7 3.4 4.7 5.3 8.8 5.7 0.1-1.9 0.2-2.9 0.4-5.1zm-0.4 5.1c-4.1-0.4-7.1-2.3-8.8-5.7-0.9 0.3-2.5 0.6-3.6 1.2 2.4 4.6 6.5 7.4 12.1 7.9q0.1-1.7 0.3-3.4zm-0.3 3.4c-5.6-0.5-9.7-3.3-12.1-7.9q-0.3 0.2-0.6 0.3c2.4 4.8 6.9 7.9 12.6 8.4q0-0.4 0.1-0.8zm-0.1 0.8c-5.7-0.5-10.2-3.6-12.6-8.4q-0.2 0.1-0.3 0.2c2.5 4.7 7.1 8 12.9 8.5q0-0.2 0-0.3zm0 0.3c-5.8-0.5-10.4-3.8-12.9-8.5q-0.1 0-0.2 0c2.5 4.8 7.3 8.2 13 8.7q0-0.1 0.1-0.2zm1.4-16c-3-0.3-4.9-0.5-6.4-0.6-0.3 2.6 0.8 3.4 1.2 3.9 1-0.4 3-2.6 5.2-3.3zm-5.2 3.3c-0.4-0.5-1.5-1.3-1.2-3.9-2.2-0.2-3.2-0.3-5.1-0.4-0.1 1.3 0.7 4.9 1.7 6.8 1.3-0.4 2.9-2 4.6-2.5zm-4.6 2.5c-1-1.9-1.8-5.5-1.7-6.8q-1.7-0.2-3.4-0.3c-0.3 3 0.2 5.7 1.5 8.3 1.1-0.6 2.7-0.9 3.6-1.2zm-3.6 1.2c-1.3-2.6-1.8-5.3-1.5-8.3q-0.4-0.1-0.8-0.1-0.4 4.8 1.7 8.7 0.3-0.1 0.6-0.3zm-0.6 0.3q-2.1-3.9-1.7-8.7-0.2 0-0.3 0c-0.3 3.2 0.3 6.2 1.7 8.9q0.1-0.1 0.3-0.2zm-0.3 0.2c-1.4-2.7-2-5.7-1.7-8.9q-0.1-0.1-0.3-0.1c-0.2 3.3 0.4 6.3 1.8 9q0.1 0 0.2 0zm14.3-7.5c-1.6-1.4-3.2-4-4-4.7-0.9 0.7-2.1 1.8-2.4 4.1 1.5 0.1 3.4 0.3 6.4 0.6zm-6.4-0.6c0.3-2.3 1.5-3.4 2.4-4.1-1.2-1-3.1-2.7-4-3.6-2 1.9-3.3 5.6-3.5 7.3 1.9 0.1 2.9 0.2 5.1 0.4zm-5.1-0.4c0.2-1.7 1.5-5.4 3.5-7.3-0.7-0.5-1.7-1.7-2.5-2.6-2.6 2.6-4.1 5.8-4.4 9.6q1.7 0.1 3.4 0.3zm-3.4-0.3c0.3-3.8 1.8-7 4.4-9.6q-0.3-0.3-0.5-0.5c-2.7 2.6-4.3 6-4.7 10q0.4 0 0.8 0.1zm-0.8-0.1c0.4-4 2-7.4 4.7-10q-0.1-0.1-0.2-0.2c-2.7 2.6-4.5 6.1-4.8 10.2q0.1 0 0.3 0zm-0.3 0c0.3-4.1 2.1-7.6 4.8-10.2q-0.1-0.1-0.2-0.1c-2.7 2.6-4.5 6.2-4.9 10.2q0.2 0 0.3 0.1zm16 1.4c0.3-3 0.4-4.9 0.6-6.4-1.2-0.1-2.9 0.5-4.6 1.7 0.8 0.7 2.4 3.3 4 4.7zm-4-4.7c1.7-1.2 3.4-1.8 4.6-1.7 0.1-2.2 0.2-3.2 0.4-5.1-3.5-0.3-6.7 1-9 3.2 0.9 0.9 2.8 2.6 4 3.6zm-4-3.6c2.3-2.2 5.5-3.5 9-3.2q0.2-1.7 0.3-3.4c-4.8-0.5-8.6 0.9-11.8 4 0.8 0.9 1.8 2.1 2.5 2.6zm-2.5-2.6c3.2-3.1 7-4.5 11.8-4q0-0.4 0.1-0.8c-4.9-0.4-9.2 1.1-12.4 4.3q0.2 0.2 0.5 0.5zm-0.5-0.5c3.2-3.2 7.5-4.7 12.4-4.3q0-0.2 0-0.3c-4.9-0.5-9.4 1.2-12.6 4.4q0.1 0.1 0.2 0.2zm-0.2-0.2c3.2-3.2 7.7-4.9 12.6-4.4q0-0.1 0-0.3c-4.9-0.4-9.5 1.4-12.8 4.6q0.1 0 0.2 0.1zm11.2 11.6c1.8-1.1 3.8-2.6 4.7-3.2-1.2-1.6-2.9-3.1-4.1-3.2-0.2 1.5-0.3 3.4-0.6 6.4zm0.6-6.4c1.2 0.1 2.9 1.6 4.1 3.2 1.4-0.8 3.6-2.8 4.7-3.4-1.9-2.7-4.9-4.6-8.4-4.9-0.2 1.9-0.3 2.9-0.4 5.1zm0.4-5.1c3.5 0.3 6.5 2.2 8.4 4.9 0.7-0.5 1.9-1.4 2.9-2.1-2.5-3.7-6.2-5.8-11-6.2q-0.1 1.7-0.3 3.4zm0.3-3.4c4.8 0.4 8.5 2.5 11 6.2q0.4-0.2 0.6-0.4c-2.6-3.8-6.6-6.2-11.5-6.6q-0.1 0.4-0.1 0.8zm0.1-0.8c4.9 0.4 8.9 2.8 11.5 6.6q0.2-0.1 0.3-0.2c-2.7-3.8-6.8-6.3-11.8-6.7q0 0.1 0 0.3zm0-0.3c5 0.4 9.1 2.9 11.8 6.7q0.1 0 0.1-0.1c-2.6-3.8-6.9-6.4-11.9-6.9q0 0.2 0 0.3zm-1.4 16c3 0.2 4.5 0.3 5.9 0.4 0.1-1-0.2-2.3-1.2-3.6-0.9 0.6-2.9 2.1-4.7 3.2zm4.7-3.2c1 1.3 1.3 2.6 1.2 3.6 2.2 0.2 3.7 0.4 5.6 0.6 0.2-2.8-0.6-5.5-2.1-7.6-1.1 0.6-3.3 2.6-4.7 3.4zm4.7-3.4c1.5 2.1 2.3 4.8 2.1 7.6q1.7 0.2 3.4 0.3c0.3-3.9-0.5-7.1-2.6-10-1 0.7-2.2 1.6-2.9 2.1zm2.9-2.1c2.1 2.9 2.9 6.1 2.6 10q0.4 0 0.8 0.1c0.3-4-0.6-7.5-2.8-10.5q-0.2 0.2-0.6 0.4zm0.6-0.4c2.2 3 3.1 6.5 2.8 10.5q0.1 0 0.3 0c0.3-4-0.7-7.6-2.8-10.7q-0.1 0.1-0.3 0.2zm0.3-0.2c2.1 3.1 3.1 6.7 2.8 10.7q0.1 0 0.2 0c0.4-4-0.7-7.7-2.9-10.8q0 0.1-0.1 0.1zm-13.2 9.3c1.8 1.2 3.5 3 4.4 3.6 1.1-1 1.4-2.3 1.5-3.2-1.4-0.1-2.9-0.2-5.9-0.4zm5.9 0.4c-0.1 0.9-0.4 2.2-1.5 3.2 1.4 1 3 3.3 4.2 4.1 1.6-1.8 2.6-4.1 2.9-6.7-1.9-0.2-3.4-0.4-5.6-0.6zm5.6 0.6c-0.3 2.6-1.3 4.9-2.9 6.7 0.7 0.5 1.7 1.6 2.6 2.4 2.2-2.5 3.4-5.3 3.7-8.8q-1.7-0.1-3.4-0.3zm3.4 0.3c-0.3 3.5-1.5 6.3-3.7 8.8q0.3 0.3 0.6 0.5c2.2-2.5 3.5-5.6 3.9-9.2q-0.4-0.1-0.8-0.1zm0.8 0.1c-0.4 3.6-1.7 6.7-3.9 9.2q0.1 0.1 0.2 0.1c2.2-2.5 3.7-5.7 4-9.3q-0.2 0-0.3 0zm0.3 0c-0.3 3.6-1.8 6.8-4 9.3q0.1 0.1 0.1 0.2c2.3-2.6 3.8-5.8 4.1-9.5q-0.1 0-0.2 0zm-16-1.4c-0.3 3-0.5 4.9-0.6 6.4 1.3 0.1 3.4-1.2 5-2.8-0.9-0.6-2.6-2.4-4.4-3.6zm4.4 3.6c-1.6 1.6-3.7 2.9-5 2.8-0.2 2.2-0.3 3.2-0.4 5.1 3.7 0.3 7.2-1.2 9.6-3.8-1.2-0.8-2.8-3.1-4.2-4.1zm4.2 4.1c-2.4 2.6-5.9 4.1-9.6 3.8q-0.2 1.7-0.3 3.4c5.1 0.5 9.3-1.2 12.5-4.8-0.9-0.8-1.9-1.9-2.6-2.4zm2.6 2.4c-3.2 3.6-7.4 5.3-12.5 4.8q-0.1 0.4-0.1 0.8c5.3 0.4 9.9-1.5 13.2-5.1q-0.3-0.2-0.6-0.5zm0.6 0.5c-3.3 3.6-7.9 5.5-13.2 5.1q0 0.1 0 0.3c5.3 0.5 10.1-1.6 13.4-5.3q-0.1 0-0.2-0.1zm0.2 0.1c-3.3 3.7-8.1 5.8-13.4 5.3q-0.1 0.1-0.1 0.2c5.4 0.5 10.3-1.6 13.6-5.3q0-0.1-0.1-0.2z"/><g style="opacity:.7;mix-blend-mode:multiply"><path class="d" d="m25.6 94.6c-2.7-0.1-5-2.5-5-5.3v-7.4c-1.8-1.6-2.8-3.9-2.6-6.4 0.2-3.9 3.5-7.1 7.5-7.3q0.1 0 0.3 0c4.3 0 7.8 3.5 7.8 7.8 0 2.3-1 4.4-2.7 5.9v7.5c0 1.4-0.5 2.7-1.5 3.7-0.9 0.9-2.2 1.5-3.6 1.5z"/><path class="e" d="m18 75.5c0.3-3.9 3.5-7.1 7.4-7.3q0.2 0 0.4 0c4.2 0 7.7 3.5 7.7 7.8 0 2.2-1 4.3-2.6 5.8-0.1 0-0.1 1.5-0.1 1.5l0.1 5.9c0 1.3-0.6 2.7-1.5 3.6-0.9 1.1-2.2 1.7-3.6 1.7 0 0-0.2 0-0.2 0-2.7-0.1-4.9-2.5-4.9-5.3v-6.4c0-0.1 0-1 0-1-1.9-1.6-2.8-3.9-2.7-6.3z"/><path class="f" d="m18.1 75.4c0.2-3.8 3.4-7 7.3-7.2q0.2 0 0.3 0c4.3 0 7.7 3.5 7.7 7.7 0 2.3-0.9 4.4-2.6 5.8 0 0.1 0 1.4 0 1.5v5.8c0 1.3-0.5 2.7-1.4 3.6-0.9 1.1-2.2 1.7-3.7 1.7 0 0-0.1 0-0.1 0-2.7 0-4.9-2.4-4.9-5.1v-6.5c0-0.1 0-1 0-1-1.8-1.5-2.8-3.8-2.6-6.3z"/><path class="g" d="m18.1 75.4c0.3-3.8 3.5-7 7.3-7.1q0.1 0 0.3 0c4.2-0.1 7.7 3.4 7.7 7.6 0 2.2-1 4.3-2.7 5.7 0 0.1 0 1.4 0 1.5v5.7c0 1.2-0.5 2.8-1.3 3.6-0.8 1.1-2.2 1.8-3.7 1.8 0 0-0.1 0-0.1 0-2.7-0.1-4.8-2.3-4.8-5.1v-6.5c0-0.1 0-1-0.1-1-1.8-1.5-2.7-3.8-2.6-6.2z"/><path class="h" d="m18.2 75.4c0.2-3.8 3.4-6.9 7.2-7.1q0.1 0 0.3 0c4.2 0 7.6 3.4 7.6 7.5 0 2.2-1 4.3-2.6 5.7-0.1 0.1-0.1 1.4-0.1 1.4v5.8c0 1.1-0.4 2.7-1.2 3.5-0.8 1.2-2.2 1.9-3.7 1.9 0 0-0.1 0-0.1 0-2.7-0.1-4.8-2.3-4.8-5v-6.6c0-0.1 0-0.9 0-1-1.8-1.5-2.8-3.8-2.6-6.1z"/><path class="i" d="m18.2 75.3c0.3-3.7 3.4-6.8 7.1-7q0.2 0 0.3 0c4.2 0 7.6 3.3 7.6 7.5 0 2.2-1 4.2-2.6 5.7 0 0-0.1 1.2-0.1 1.3v5.7c0 1-0.4 2.7-1.1 3.5-0.8 1.2-2.2 2-3.7 2 0 0-0.2 0-0.2 0-2.5-0.1-4.6-2.3-4.6-5v-6.6c0-0.1-0.1-0.9-0.1-1-1.8-1.5-2.7-3.7-2.6-6.1z"/><path class="j" d="m18.3 75.3c0.2-3.7 3.3-6.8 7-7q0.2 0 0.3 0c4.1 0 7.5 3.3 7.5 7.5 0 2.1-0.9 4.2-2.5 5.6-0.1 0-0.2 1.2-0.2 1.3v5.6c0 1-0.3 2.8-1 3.5-0.7 1.3-2.1 2.1-3.7 2.1-0.1 0-0.2 0-0.2 0-2.5-0.1-4.6-2.3-4.6-4.9v-6.7c0-0.1 0-0.9-0.1-1-1.7-1.5-2.7-3.7-2.5-6z"/><path class="k" d="m18.3 75.2c0.3-3.6 3.3-6.6 7-6.8q0.1 0 0.3 0c4.1-0.1 7.4 3.2 7.4 7.3 0 2.2-0.9 4.2-2.5 5.6-0.1 0-0.1 1.2-0.1 1.3v5.5c0 0.9-0.4 2.8-1 3.4-0.7 1.4-2.1 2.3-3.8 2.3 0 0-0.1 0-0.1 0-2.5-0.1-4.5-2.3-4.5-4.8v-6.8c0-0.1-0.1-0.9-0.2-1-1.7-1.4-2.6-3.6-2.5-6z"/><path class="l" d="m18.4 75.2c0.2-3.6 3.2-6.6 6.9-6.8q0.1 0 0.3 0c4-0.1 7.4 3.2 7.4 7.3 0 2.1-1 4.1-2.6 5.5-0.1 0.1-0.1 1.1-0.1 1.3v5.4c0 0.9-0.3 2.8-0.9 3.4-0.7 1.4-2.1 2.4-3.8 2.4 0 0-0.1 0-0.1 0-2.5-0.1-4.5-2.3-4.5-4.8v-6.8c0-0.1 0-0.9-0.1-1-1.7-1.4-2.7-3.6-2.5-5.9z"/><path class="m" d="m18.4 75.2c0.2-3.6 3.2-6.6 6.8-6.8q0.2 0 0.3 0c4.1-0.1 7.4 3.2 7.4 7.2 0 2.1-1 4.1-2.5 5.5-0.1 0.1-0.2 1.1-0.2 1.3v5.3c0 0.8-0.3 2.8-0.9 3.4-0.5 1.5-2 2.5-3.7 2.5 0 0-0.1 0-0.1 0-2.5-0.1-4.4-2.2-4.4-4.7v-6.9c0-0.1-0.1-0.8-0.2-0.9-1.7-1.5-2.6-3.6-2.5-5.9z"/><path class="n" d="m18.5 75.1c0.2-3.5 3.1-6.5 6.7-6.7q0.2 0 0.3 0c4-0.1 7.3 3.2 7.3 7.2 0 2.1-0.9 4-2.5 5.4-0.1 0.1-0.2 1.1-0.2 1.2v5.3c0 0.8-0.3 2.9-0.8 3.4-0.5 1.5-2 2.6-3.7 2.6 0 0-0.1 0-0.2 0-2.4-0.1-4.3-2.2-4.3-4.7v-6.9c0-0.1 0-0.8-0.2-0.9-1.6-1.5-2.6-3.6-2.4-5.9z"/><path class="o" d="m18.5 75.1c0.2-3.5 3.2-6.4 6.7-6.7q0.1 0 0.3 0c4 0 7.2 3.2 7.2 7.1 0 2.1-0.9 4.1-2.4 5.4-0.2 0.1-0.3 1-0.3 1.2v5.2c0 0.7-0.2 2.9-0.7 3.4-0.4 1.5-2 2.7-3.7 2.7-0.1 0-0.2 0-0.2 0-2.3-0.1-4.2-2.2-4.2-4.6v-6.9c0-0.2-0.1-0.9-0.3-1-1.6-1.4-2.5-3.5-2.4-5.8z"/><path class="p" d="m18.6 75c0.2-3.5 3.1-6.3 6.6-6.5q0.1 0 0.2 0c4-0.1 7.2 3.1 7.2 7 0 2.1-0.9 4-2.4 5.3-0.2 0.1-0.2 1-0.2 1.2v5.2c0 0.5-0.3 2.8-0.7 3.3-0.4 1.6-2 2.8-3.8 2.8 0 0-0.1 0-0.1-0.1-2.3-0.1-4.2-2.1-4.2-4.5v-6.9c0-0.3-0.1-0.9-0.2-1-1.6-1.4-2.6-3.5-2.4-5.8z"/><path class="q" d="m18.6 75c0.2-3.5 3.1-6.3 6.5-6.5q0.2 0 0.3 0c3.9-0.1 7.2 3 7.2 7 0 2-1 3.9-2.4 5.2-0.2 0.2-0.3 1-0.3 1.2v5.1c0 0.5-0.2 2.9-0.6 3.2-0.4 1.7-1.9 3-3.8 2.9 0 0-0.1 0-0.1 0-2.3-0.1-4.1-2.1-4.1-4.4v-7c0-0.3-0.1-0.9-0.3-1-1.6-1.4-2.5-3.5-2.4-5.7z"/><path class="r" d="m18.7 75c0.2-3.5 3-6.3 6.4-6.5q0.2 0 0.3 0c3.9-0.1 7.1 3 7.1 6.9 0 2.1-0.9 3.9-2.4 5.2-0.2 0.2-0.3 0.9-0.3 1.2v5c0 0.4-0.2 2.9-0.5 3.2-0.3 1.8-1.9 3.1-3.8 3 0 0-0.1 0-0.1 0-2.3-0.1-4.1-2.1-4.1-4.4v-7c0-0.3-0.1-0.8-0.3-1-1.5-1.4-2.5-3.4-2.3-5.6z"/><path class="s" d="m18.7 74.9c0.2-3.4 3-6.1 6.4-6.4q0.1 0 0.3 0c3.8-0.1 7 3 7 6.9 0 2-0.9 3.9-2.4 5.1-0.2 0.2-0.3 0.9-0.3 1.2v4.9c0 0.4-0.1 2.9-0.4 3.2-0.3 1.8-1.9 3.2-3.8 3.1-0.1 0-0.1 0-0.2 0-2.2-0.1-3.9-2-3.9-4.3v-7.1c0-0.3-0.1-0.8-0.3-1-1.6-1.3-2.5-3.4-2.4-5.6z"/><path class="t" d="m18.8 74.9c0.2-3.4 2.9-6.1 6.3-6.3q0.1 0 0.2-0.1c3.9-0.1 7 3 7 6.8 0 2-0.9 3.9-2.3 5.1-0.2 0.2-0.4 0.9-0.4 1.1v4.9c0 0.3-0.1 3-0.3 3.2-0.3 1.8-1.9 3.3-3.9 3.2 0 0 0 0-0.1 0-2.2-0.1-3.9-2-3.9-4.2v-7.2c0-0.3-0.1-0.8-0.3-1-1.6-1.3-2.5-3.3-2.3-5.5z"/><path class="u" d="m18.8 74.9c0.2-3.4 2.9-6.1 6.2-6.3q0.2 0 0.3 0c3.8-0.1 6.9 2.9 6.9 6.7 0 2-0.9 3.8-2.3 5-0.2 0.2-0.3 0.8-0.3 1.1v4.8c0 0.3-0.1 3-0.3 3.2-0.2 1.9-1.9 3.4-3.9 3.3q0 0-0.1 0c-2.1-0.1-3.8-2-3.8-4.2v-7.2c0-0.3-0.1-0.8-0.4-1-1.5-1.3-2.4-3.3-2.3-5.4z"/><path class="v" d="m18.9 74.8c0.2-3.3 2.9-5.9 6.1-6.2q0.1 0 0.3 0c3.8-0.1 6.9 2.9 6.9 6.6 0 2-0.9 3.8-2.3 5-0.3 0.3-0.4 0.8-0.4 1.1v4.7c0 0.2-0.1 3-0.2 3.1-0.2 2-1.9 3.6-3.9 3.5q-0.1 0-0.1 0c-2.1-0.1-3.8-2-3.8-4.1v-7.3c0-0.3-0.1-0.7-0.4-1-1.5-1.3-2.4-3.2-2.2-5.4z"/><path class="w" d="m18.9 74.8c0.2-3.3 2.9-5.9 6.1-6.2q0.1 0 0.3 0c3.7-0.1 6.8 2.9 6.8 6.6 0 2-0.9 3.7-2.3 4.9-0.3 0.3-0.4 0.7-0.4 1.1v4.6c0 0.2-0.1 3-0.1 3.1-0.1 2-1.8 3.6-3.9 3.6q-0.1 0-0.1 0c-2.1-0.1-3.7-2-3.7-4.1v-7.3c0-0.3-0.2-0.7-0.4-1-1.5-1.2-2.4-3.2-2.3-5.3z"/><path class="x" d="m19 74.7c0.2-3.2 2.8-5.8 6-6q0.1-0.1 0.2-0.1c3.7-0.1 6.8 2.9 6.8 6.5 0 2-0.9 3.8-2.3 5-0.2 0.2-0.4 0.6-0.4 1v4.5c0 0.1 0 3.1-0.1 3.1 0 2.1-1.7 3.7-3.8 3.7q-0.1 0-0.2 0c-2-0.1-3.6-1.9-3.6-4v-7.3c0-0.4-0.1-0.8-0.4-1-1.5-1.3-2.4-3.2-2.2-5.4z"/><path class="y" d="m31.9 75.1c0-3.6-3-6.6-6.7-6.4-3.3 0.1-6 2.7-6.2 6-0.1 2.1 0.8 4 2.2 5.3 0.3 0.2 0.5 0.6 0.5 1v7.3c0 2.1 1.6 3.9 3.6 4 2.2 0 3.9-1.7 3.9-3.8v-7.5c0-0.4 0.2-0.8 0.5-1 1.3-1.2 2.2-3 2.2-4.9z"/></g><path class="z" d="m31.9 75.1c0-3.6-3-6.6-6.7-6.4-3.3 0.1-6 2.7-6.2 6-0.1 2.1 0.8 4 2.2 5.3 0.3 0.2 0.5 0.6 0.5 1v7.3c0 2.1 1.6 3.9 3.6 4 2.2 0 3.9-1.7 3.9-3.8v-7.5c0-0.4 0.2-0.8 0.5-1 1.3-1.2 2.2-3 2.2-4.9z"/><path fill-rule="evenodd" class="A" d="m31.9 75.1c0 1.9-0.9 3.7-2.2 4.9-0.3 0.2-0.5 0.6-0.5 1v7.5c0 2.1-1.7 3.8-3.9 3.8-2-0.1-3.6-1.9-3.6-4v-7.3c0-0.4-0.2-0.8-0.5-1-1.4-1.3-2.3-3.2-2.2-5.3 0.2-3.3 2.9-5.9 6.2-6 3.7-0.2 6.7 2.8 6.7 6.4zm-0.3 0c0-3.4-2.7-6.2-6.1-6.2q-0.2 0-0.3 0c-3.1 0.2-5.7 2.7-5.9 5.8-0.1 1.9 0.6 3.8 2.1 5.1 0.4 0.3 0.6 0.7 0.6 1.2v7.3c0 2 1.5 3.6 3.4 3.7h0.1c0.9 0 1.8-0.4 2.4-1 0.7-0.7 1.1-1.6 1.1-2.5v-7.5c0-0.5 0.2-0.9 0.5-1.2 1.4-1.2 2.1-2.9 2.1-4.7z"/><g style="opacity:.7;mix-blend-mode:screen"><path fill-rule="evenodd" class="d" d="m25.5 80.6c-3.1 0-5.5-2.5-5.5-5.5 0-3 2.4-5.5 5.5-5.5 3 0 5.4 2.5 5.4 5.5 0 3-2.4 5.5-5.4 5.5zm0-10.3c-2.7 0-4.8 2.2-4.8 4.8 0 2.7 2.1 4.8 4.8 4.8 2.6 0 4.8-2.1 4.8-4.8 0-2.6-2.2-4.8-4.8-4.8z"/><path fill-rule="evenodd" class="B" d="m25.5 80.6c-3 0-5.5-2.5-5.5-5.5 0-3 2.5-5.5 5.5-5.5 3 0 5.4 2.5 5.4 5.5 0 3-2.4 5.5-5.4 5.5zm0-10.3c-2.7 0-4.9 2.1-4.9 4.8 0 2.7 2.2 4.8 4.9 4.8 2.6 0 4.8-2.1 4.8-4.8 0-2.7-2.2-4.8-4.8-4.8z"/><path fill-rule="evenodd" class="C" d="m25.5 80.6c-3 0-5.5-2.5-5.5-5.5 0-3 2.5-5.4 5.5-5.4 3 0 5.4 2.4 5.4 5.4 0 3-2.4 5.5-5.4 5.5zm0-10.3c-2.7 0-4.9 2.1-4.9 4.8 0 2.7 2.2 4.8 4.9 4.8 2.6 0 4.8-2.1 4.8-4.8 0-2.7-2.2-4.8-4.8-4.8z"/><path fill-rule="evenodd" class="D" d="m25.5 80.5c-3 0-5.5-2.4-5.5-5.4 0-3 2.5-5.4 5.5-5.4 3 0 5.4 2.4 5.4 5.4 0 3-2.4 5.4-5.4 5.4zm0-10.2c-2.7 0-4.9 2.1-4.9 4.8 0 2.7 2.2 4.8 4.9 4.8 2.6 0 4.8-2.1 4.8-4.8 0-2.7-2.2-4.8-4.8-4.8z"/><path fill-rule="evenodd" class="E" d="m25.5 80.5c-3 0-5.5-2.4-5.5-5.4 0-3 2.5-5.4 5.5-5.4 3 0 5.4 2.4 5.4 5.4 0 3-2.4 5.4-5.4 5.4zm0-10.2c-2.7 0-4.9 2.1-4.9 4.8 0 2.7 2.2 4.8 4.9 4.8 2.6 0 4.8-2.1 4.8-4.8 0-2.7-2.2-4.8-4.8-4.8z"/><path fill-rule="evenodd" class="F" d="m25.5 80.5c-3 0-5.5-2.4-5.5-5.4 0-3 2.5-5.4 5.5-5.4 3 0 5.4 2.4 5.4 5.4 0 3-2.4 5.4-5.4 5.4zm0-10.3c-2.7 0-4.9 2.2-4.9 4.9 0 2.7 2.2 4.9 4.9 4.9 2.6 0 4.8-2.2 4.8-4.9 0-2.7-2.2-4.9-4.8-4.9z"/><path fill-rule="evenodd" class="G" d="m25.5 80.5c-3 0-5.5-2.4-5.5-5.4 0-3 2.5-5.4 5.5-5.4 2.9 0 5.4 2.4 5.4 5.4 0 3-2.5 5.4-5.4 5.4zm0-10.3c-2.7 0-4.9 2.2-4.9 4.9 0 2.7 2.2 4.9 4.9 4.9 2.6 0 4.8-2.2 4.8-4.9 0-2.7-2.2-4.9-4.8-4.9z"/><path fill-rule="evenodd" class="H" d="m25.5 80.5c-3 0-5.4-2.4-5.4-5.4 0-3 2.4-5.4 5.4-5.4 2.9 0 5.4 2.4 5.4 5.4 0 3-2.5 5.4-5.4 5.4zm0-10.3c-2.7 0-4.9 2.2-4.9 4.9 0 2.7 2.2 4.9 4.9 4.9 2.6 0 4.8-2.2 4.8-4.9 0-2.7-2.2-4.9-4.8-4.9z"/><path fill-rule="evenodd" class="I" d="m25.5 80.5c-3 0-5.4-2.4-5.4-5.4 0-3 2.4-5.4 5.4-5.4 2.9 0 5.4 2.4 5.4 5.4 0 3-2.5 5.4-5.4 5.4zm0-10.3c-2.7 0-4.9 2.2-4.9 4.9 0 2.7 2.2 4.9 4.9 4.9 2.7 0 4.8-2.2 4.8-4.9 0-2.7-2.1-4.9-4.8-4.9z"/><path fill-rule="evenodd" class="J" d="m25.5 80.5c-3 0-5.4-2.4-5.4-5.4 0-3 2.4-5.4 5.4-5.4 2.9 0 5.3 2.4 5.3 5.4 0 3-2.4 5.4-5.3 5.4zm0-10.3c-2.7 0-4.9 2.2-4.9 4.9 0 2.7 2.2 4.9 4.9 4.9 2.7 0 4.8-2.2 4.8-4.9 0-2.7-2.1-4.9-4.8-4.9z"/><path fill-rule="evenodd" class="K" d="m25.5 80.5c-3 0-5.4-2.4-5.4-5.4 0-3 2.4-5.4 5.4-5.4 2.9 0 5.3 2.4 5.3 5.4 0 3-2.4 5.4-5.3 5.4zm0-10.3c-2.7 0-4.9 2.2-4.9 4.9 0 2.7 2.2 4.9 4.9 4.9 2.7 0 4.9-2.2 4.9-4.9 0-2.7-2.2-4.9-4.9-4.9z"/><path fill-rule="evenodd" class="L" d="m25.5 80.5c-3 0-5.4-2.4-5.4-5.4 0-3 2.4-5.4 5.4-5.4 2.9 0 5.3 2.4 5.3 5.4 0 3-2.4 5.4-5.3 5.4zm0-10.3c-2.7 0-4.9 2.2-4.9 4.9 0 2.7 2.2 4.9 4.9 4.9 2.7 0 4.9-2.2 4.9-4.9 0-2.7-2.2-4.9-4.9-4.9z"/><path fill-rule="evenodd" class="M" d="m25.5 80.5c-3 0-5.4-2.4-5.4-5.4 0-3 2.4-5.4 5.4-5.4 2.9 0 5.3 2.4 5.3 5.4 0 3-2.4 5.4-5.3 5.4zm0-10.3c-2.8 0-5 2.2-5 4.9 0 2.7 2.2 4.9 5 4.9 2.7 0 4.9-2.2 4.9-4.9 0-2.7-2.2-4.9-4.9-4.9z"/><path fill-rule="evenodd" class="N" d="m25.5 80.5c-3 0-5.4-2.4-5.4-5.4 0-2.9 2.4-5.3 5.4-5.3 2.9 0 5.3 2.4 5.3 5.3 0 3-2.4 5.4-5.3 5.4zm0-10.3c-2.8 0-5 2.2-5 4.9 0 2.7 2.2 4.9 5 4.9 2.7 0 4.9-2.2 4.9-4.9 0-2.7-2.2-4.9-4.9-4.9z"/><path fill-rule="evenodd" class="O" d="m25.5 80.4c-3 0-5.4-2.4-5.4-5.3 0-2.9 2.4-5.3 5.4-5.3 2.9 0 5.3 2.4 5.3 5.3 0 2.9-2.4 5.3-5.3 5.3zm0-10.2c-2.8 0-5 2.2-5 4.9 0 2.7 2.2 4.9 5 4.9 2.7 0 4.9-2.2 4.9-4.9 0-2.7-2.2-4.9-4.9-4.9z"/><path fill-rule="evenodd" class="P" d="m25.5 80.4c-3 0-5.4-2.4-5.4-5.3 0-2.9 2.4-5.3 5.4-5.3 2.9 0 5.3 2.4 5.3 5.3 0 2.9-2.4 5.3-5.3 5.3zm0-10.2c-2.8 0-5 2.2-5 4.9 0 2.7 2.2 4.9 5 4.9 2.7 0 4.9-2.2 4.9-4.9 0-2.7-2.2-4.9-4.9-4.9z"/><path fill-rule="evenodd" class="Q" d="m25.5 80.4c-3 0-5.4-2.4-5.4-5.3 0-2.9 2.4-5.3 5.4-5.3 2.9 0 5.3 2.4 5.3 5.3 0 2.9-2.4 5.3-5.3 5.3zm0-10.3c-2.8 0-5 2.3-5 5 0 2.7 2.2 5 5 5 2.7 0 4.9-2.3 4.9-5 0-2.7-2.2-5-4.9-5z"/><path fill-rule="evenodd" class="R" d="m25.5 80.4c-3 0-5.4-2.4-5.4-5.3 0-2.9 2.4-5.3 5.4-5.3 2.9 0 5.3 2.4 5.3 5.3 0 2.9-2.4 5.3-5.3 5.3zm0-10.3c-2.8 0-5 2.3-5 5 0 2.7 2.2 5 5 5 2.7 0 4.9-2.3 4.9-5 0-2.7-2.2-5-4.9-5z"/><path fill-rule="evenodd" class="S" d="m25.5 80.4c-3 0-5.3-2.4-5.3-5.3 0-2.9 2.3-5.3 5.3-5.3 2.9 0 5.3 2.4 5.3 5.3 0 2.9-2.4 5.3-5.3 5.3zm0-10.3c-2.8 0-5 2.3-5 5 0 2.7 2.2 5 5 5 2.7 0 4.9-2.3 4.9-5 0-2.7-2.2-5-4.9-5z"/><path fill-rule="evenodd" class="T" d="m25.5 80.4c-3 0-5.3-2.4-5.3-5.3 0-2.9 2.3-5.3 5.3-5.3 2.9 0 5.3 2.4 5.3 5.3 0 2.9-2.4 5.3-5.3 5.3zm0-10.3c-2.8 0-5 2.3-5 5 0 2.7 2.2 5 5 5 2.7 0 4.9-2.3 4.9-5 0-2.7-2.2-5-4.9-5z"/><path fill-rule="evenodd" class="U" d="m25.5 80.4c-3 0-5.3-2.4-5.3-5.3 0-2.9 2.3-5.3 5.3-5.3 2.9 0 5.2 2.4 5.2 5.3 0 2.9-2.3 5.3-5.2 5.3zm0-10.3c-2.8 0-5 2.3-5 5 0 2.8 2.2 5 5 5 2.7 0 4.9-2.2 4.9-5 0-2.7-2.2-5-4.9-5z"/><path fill-rule="evenodd" class="V" d="m25.5 80.4c-3 0-5.3-2.4-5.3-5.3 0-2.9 2.3-5.3 5.3-5.3 2.9 0 5.2 2.4 5.2 5.3 0 2.9-2.3 5.3-5.2 5.3zm0-10.3c-2.8 0-5 2.2-5 5 0 2.8 2.2 5 5 5 2.7 0 5-2.2 5-5 0-2.8-2.3-5-5-5z"/></g><path class="W" d="m25.5 70.1c1.2 0 2.2 1 2.2 2.2 0 1.3-1 2.3-2.2 2.3-1.3 0-2.3-1-2.3-2.3 0-1.2 1-2.2 2.3-2.2z"/><path class="X" d="m26.3 72l-0.4 0.4v1.4h0.4v1.4l-0.3 0.4 0.3 0.3v0.3l-0.3 0.4 0.3 0.3v0.6 0.1h-1.7v-1.1l0.4-0.4v-1h-0.4v-1.8l0.3-0.3-0.3-0.3v-0.8l0.4-0.5-0.4-0.3v-1.1h0.1q0.4 0 0.8 0 0.4 0 0.7 0h0.1z"/><path class="V" d="m24.7 71l0.4 0.4-0.4 0.5v0.7l0.3 0.4-0.3 0.3v1.7h0.4v1.2l-0.4 0.3v1h1.5v-0.5l-0.3-0.4 0.3-0.4v-0.2l-0.3-0.4 0.3-0.4v-1.4h-0.3v-1.5l0.3-0.3v-1.9q-0.3 0-0.7 0-0.4 0-0.8 0z"/><path fill-rule="evenodd" class="V" d="m25.5 80.4c-3 0-5.3-2.4-5.3-5.3 0-2.9 2.3-5.3 5.3-5.3 2.9 0 5.2 2.4 5.2 5.3 0 2.9-2.3 5.3-5.2 5.3zm0-10.3c-2.8 0-5 2.2-5 5 0 2.8 2.2 5 5 5 2.7 0 5-2.2 5-5 0-2.8-2.3-5-5-5z"/><path class="Y" d="m81.8 38.4h-55.6c-3.4 0-6.2-2.8-6.2-6.2 0-3.4 2.8-6.2 6.2-6.2h55.6c3.4 0 6.2 2.8 6.2 6.2 0 3.4-2.8 6.2-6.2 6.2z"/><path class="Z" d="m32 38.4h-0.9v-12.4h0.9z"/><path class="a0" d="m36.2 38.4h-4.2v-12.4h4.2z"/><path class="a1" d="m29.7 38.4h1.4v-12.4h-1.4z"/><path class="a2" d="m32 38.4h-0.9v-12.4h0.9z"/><path class="Z" d="m74.1 38.4h-0.9v-12.4h0.9z"/><path class="a3" d="m78.3 38.4h-4.2v-12.4h4.2z"/><path class="a4" d="m71.8 38.4h1.4v-12.4h-1.4z"/><path class="a5" d="m74.1 38.4h-0.9v-12.4h0.9z"/><path class="a6" d="m22.5 37.2c1.1 0.7 2.3 1.2 3.7 1.2h55.6c1.4 0 2.6-0.5 3.6-1.2z"/><path class="a7" d="m22.5 27.2c1.1-0.8 2.3-1.2 3.7-1.2h55.6c1.4 0 2.6 0.4 3.6 1.2z"/></svg>